<?xml version="1.0" standalone="no"?>
<!DOCTYPE svg PUBLIC "-//W3C//DTD SVG 20010904//EN"
 "http://www.w3.org/TR/2001/REC-SVG-20010904/DTD/svg10.dtd">
<svg version="1.0" xmlns="http://www.w3.org/2000/svg"
 width="171.000000pt" height="171.000000pt" viewBox="0 0 171.000000 171.000000"
 preserveAspectRatio="xMidYMid meet">
<metadata>
Created by potrace 1.11, written by Peter Selinger 2001-2013
</metadata>
<g transform="translate(0.000000,171.000000) scale(0.100000,-0.100000)"
fill="#000000" stroke="none">
<path d="M290 1330 c0 -10 4 -20 10 -22 5 -1 14 -18 19 -35 9 -29 7 -33 -10
-33 -16 0 -18 -5 -13 -26 l7 -27 -42 23 c-49 28 -52 40 -11 40 46 0 35 51 -11
54 -14 1 -24 7 -24 16 0 11 -13 16 -44 18 -40 3 -43 1 -38 -17 3 -11 2 -20 -2
-19 -39 5 -57 -4 -57 -27 0 -21 5 -25 28 -25 36 0 35 -11 -4 -56 l-32 -36 29
-25 29 -25 33 36 c18 20 37 36 42 36 5 0 18 -13 28 -30 l19 -30 33 30 c44 41
68 39 77 -5 4 -22 12 -35 23 -36 32 -2 83 0 87 3 4 5 -74 210 -85 221 -4 4
-26 9 -49 12 -36 4 -42 1 -42 -15z"/>
<path d="M1197 1295 c-57 -14 -77 -30 -77 -61 0 -67 193 -100 261 -45 70 56
-68 136 -184 106z m115 -52 c16 -20 -5 -33 -53 -33 -62 0 -78 43 -19 52 34 5
57 -1 72 -19z"/>
<path d="M733 1285 c5 -11 -6 -14 -59 -12 -36 1 -68 -1 -71 -6 -12 -19 21 -36
68 -35 66 0 72 -8 21 -30 -43 -18 -50 -30 -30 -50 9 -9 2 -12 -35 -12 -49 0
-58 -9 -30 -31 11 -10 44 -14 102 -14 l86 0 10 -40 c10 -39 11 -40 48 -37 l37
3 -6 39 -6 38 56 -3 c39 -3 56 0 56 9 0 22 -23 36 -59 36 -34 0 -34 0 -16 20
23 25 15 34 -50 53 -49 15 -47 21 8 17 21 -1 27 3 27 19 0 21 -10 25 -58 23
-13 -1 -25 5 -29 13 -3 9 -19 15 -40 15 -27 0 -34 -4 -30 -15z m121 -126 l31
-19 -105 1 -105 0 47 15 c26 8 50 19 53 25 8 12 37 4 79 -22z"/>
<path d="M1060 1133 c0 -5 7 -16 14 -26 12 -16 32 -17 213 -15 l200 3 -8 23
c-8 22 -10 22 -214 22 -113 0 -205 -3 -205 -7z"/>
<path d="M196 1096 c-131 -49 -128 -168 6 -226 41 -18 71 -23 133 -23 118 1
177 32 191 102 6 28 2 36 -38 74 -24 24 -62 51 -83 62 -51 24 -157 30 -209 11z
m163 -71 c54 -27 51 -78 -5 -94 -39 -11 -87 0 -115 25 -60 54 40 111 120 69z"/>
<path d="M1093 1053 c-3 -7 4 -32 16 -56 12 -24 21 -50 21 -58 0 -35 21 -39
212 -39 103 0 188 3 188 8 0 4 -6 16 -14 27 -12 18 -25 20 -149 19 l-136 -1
-21 56 -21 57 -46 0 c-27 0 -47 -5 -50 -13z"/>
<path d="M627 1040 c-3 -10 1 -24 7 -29 7 -6 19 -30 26 -53 7 -24 17 -47 22
-53 10 -11 338 -14 338 -3 0 4 -5 19 -10 33 -9 24 -15 26 -58 25 -26 -1 -79
-1 -118 -1 l-71 1 -21 50 c-21 49 -21 50 -65 50 -36 0 -46 -4 -50 -20z"/>
<path d="M340 730 c0 -10 4 -20 8 -22 5 -1 25 -68 46 -148 58 -226 50 -210
101 -210 24 0 46 4 49 9 3 4 -8 45 -24 90 -34 91 -35 102 -17 98 24 -4 13 37
-12 43 -19 4 -30 20 -48 70 -29 78 -30 79 -71 84 -25 3 -32 0 -32 -14z"/>
<path d="M1124 738 c-4 -6 -1 -14 7 -18 7 -5 36 -89 64 -187 l51 -178 52 -3
c46 -3 51 -1 46 15 -23 66 -137 359 -143 366 -12 12 -70 16 -77 5z"/>
<path d="M978 732 c-16 -2 -28 -6 -28 -10 0 -15 16 -30 35 -34 12 -2 20 -11
20 -23 -1 -54 -17 -147 -34 -203 l-19 -62 35 -15 c20 -9 37 -14 39 -12 6 6 34
122 34 142 1 20 1 20 12 0 6 -10 19 -44 28 -75 15 -49 19 -55 41 -51 60 8 61
14 12 103 -79 143 -83 152 -83 174 0 13 8 24 20 27 21 5 18 36 -4 38 -55 3
-85 4 -108 1z"/>
<path d="M156 714 c-3 -9 -3 -21 1 -27 5 -7 9 -50 10 -97 0 -47 2 -106 2 -132
1 -68 16 -78 109 -73 42 2 84 4 93 4 14 1 12 16 -13 119 -55 225 -54 224 -90
220 -31 -3 -48 -31 -27 -44 5 -3 9 -19 9 -37 0 -45 -17 -21 -24 33 -3 25 -5
46 -5 48 -1 1 -14 2 -30 2 -17 0 -31 -6 -35 -16z m109 -165 c12 -78 13 -109 4
-109 -12 0 -16 13 -23 76 -7 63 9 91 19 33z"/>
<path d="M1381 658 c9 -21 16 -23 75 -21 64 1 65 1 78 -31 10 -23 20 -32 41
-34 25 -2 27 0 20 26 -18 75 -21 77 -128 80 l-97 3 11 -23z"/>
<path d="M620 662 c0 -21 29 -32 81 -32 32 0 61 -4 64 -10 6 -9 -11 -11 -92
-13 -18 -1 -24 -8 -29 -33 -11 -58 -4 -69 49 -72 50 -3 51 -6 32 -69 -2 -7
-22 -12 -47 -11 -67 0 -70 0 -66 -24 3 -23 6 -23 157 -26 85 -1 158 1 163 6 4
4 2 16 -5 26 -10 14 -28 18 -73 20 -57 1 -59 2 -62 29 -2 19 -9 27 -23 27 -10
0 -19 5 -19 10 0 6 27 10 60 10 l60 0 -12 25 c-10 23 -16 25 -85 25 -42 0 -73
4 -73 10 0 6 17 10 38 9 20 -1 52 -1 69 0 l33 1 -18 48 -18 47 -92 3 c-51 1
-92 -1 -92 -6z"/>
<path d="M1360 552 c1 -33 48 -39 243 -33 34 1 37 3 27 21 -10 18 -21 20 -140
19 -72 0 -130 -3 -130 -7z"/>
<path d="M1390 436 c0 -49 4 -65 16 -70 9 -3 70 -6 136 -6 l120 0 -7 33 c-4
17 -14 48 -23 67 l-17 35 -112 3 -113 3 0 -65z m174 8 c11 -30 6 -34 -44 -34
-27 0 -50 4 -50 9 0 5 -3 16 -6 25 -5 13 2 16 44 16 36 0 52 -4 56 -16z"/>
</g>
</svg>
